<svg xmlns="http://www.w3.org/2000/svg" xmlns:xlink="http://www.w3.org/1999/xlink" width="500" zoomAndPan="magnify" viewBox="0 0 375 225" height="300" preserveAspectRatio="xMidYMid meet" version="1.0"><defs><clipPath id="0a6b48457a"><path d="M 78.492188 3.492188 L 302.742188 3.492188 L 302.742188 225 L 78.492188 225 Z M 78.492188 3.492188 " clip-rule="nonzero"/></clipPath><clipPath id="4a5217e441"><path d="M 78.492188 3.492188 L 302.742188 3.492188 L 302.742188 61 L 78.492188 61 Z M 78.492188 3.492188 " clip-rule="nonzero"/></clipPath><clipPath id="0e0d91296f"><path d="M 78.492188 3.492188 L 191 3.492188 L 191 225 L 78.492188 225 Z M 78.492188 3.492188 " clip-rule="nonzero"/></clipPath><clipPath id="00b3010e41"><path d="M 78.492188 3.492188 L 191 3.492188 L 191 61 L 78.492188 61 Z M 78.492188 3.492188 " clip-rule="nonzero"/></clipPath></defs><rect x="-37.5" width="450" fill="#ffffff" y="-22.5" height="270" fill-opacity="1"/><rect x="-37.5" width="450" fill="#fffff6" y="-22.5" height="270" fill-opacity="1"/><g clip-path="url(#0a6b48457a)"><path fill="#5e94ff" d="M 106.652344 2.96875 C 90.8125 2.96875 77.96875 15.8125 77.96875 31.652344 L 77.96875 198.535156 C 77.96875 214.378906 90.8125 227.21875 106.652344 227.21875 L 273.535156 227.21875 C 289.378906 227.21875 302.21875 214.378906 302.21875 198.535156 L 302.21875 31.652344 C 302.21875 15.8125 289.378906 2.96875 273.535156 2.96875 Z M 106.652344 2.96875 " fill-opacity="1" fill-rule="nonzero"/></g><g clip-path="url(#4a5217e441)"><path fill="#4dc4ff" d="M 106.652344 2.96875 C 90.8125 2.96875 77.96875 15.8125 77.96875 31.652344 L 77.96875 52.511719 C 77.96875 56.832031 81.472656 60.335938 85.792969 60.335938 L 294.398438 60.335938 C 298.71875 60.335938 302.21875 56.832031 302.21875 52.511719 L 302.21875 31.652344 C 302.21875 15.8125 289.378906 2.96875 273.535156 2.96875 Z M 106.652344 2.96875 " fill-opacity="1" fill-rule="nonzero"/></g><g clip-path="url(#0e0d91296f)"><path fill="#5485e5" d="M 190.09375 2.96875 L 190.09375 227.21875 L 106.652344 227.21875 C 90.8125 227.21875 77.96875 214.378906 77.96875 198.535156 L 77.96875 31.652344 C 77.96875 15.8125 90.8125 2.96875 106.652344 2.96875 Z M 190.09375 2.96875 " fill-opacity="1" fill-rule="evenodd"/></g><g clip-path="url(#00b3010e41)"><path fill="#45b0e5" d="M 190.09375 2.96875 L 190.09375 60.335938 L 85.792969 60.335938 C 81.472656 60.335938 77.96875 56.832031 77.96875 52.511719 L 77.96875 31.652344 C 77.96875 15.8125 90.8125 2.96875 106.652344 2.96875 Z M 190.09375 2.96875 " fill-opacity="1" fill-rule="evenodd"/></g><path fill="#eceff1" d="M 197.917969 83.804688 C 197.917969 79.484375 201.421875 75.980469 205.742188 75.980469 L 263.105469 75.980469 C 267.425781 75.980469 270.929688 79.484375 270.929688 83.804688 C 270.929688 88.125 267.425781 91.625 263.105469 91.625 L 213.5625 91.625 L 213.5625 128.132812 L 263.105469 128.132812 C 267.425781 128.132812 270.929688 131.636719 270.929688 135.957031 L 270.929688 188.105469 C 270.929688 192.425781 267.425781 195.929688 263.105469 195.929688 L 205.742188 195.929688 C 201.421875 195.929688 197.917969 192.425781 197.917969 188.105469 C 197.917969 183.785156 201.421875 180.285156 205.742188 180.285156 L 255.285156 180.285156 L 255.285156 143.777344 L 205.742188 143.777344 C 201.421875 143.777344 197.917969 140.277344 197.917969 135.957031 Z M 197.917969 83.804688 " fill-opacity="1" fill-rule="evenodd"/><path fill="#cfd8dc" d="M 98.832031 83.804688 C 98.832031 79.484375 102.332031 75.980469 106.652344 75.980469 L 179.664062 75.980469 C 183.984375 75.980469 187.488281 79.484375 187.488281 83.804688 C 187.488281 88.125 183.984375 91.625 179.664062 91.625 L 150.980469 91.625 L 150.980469 188.105469 C 150.980469 192.425781 147.480469 195.929688 143.160156 195.929688 C 138.839844 195.929688 135.335938 192.425781 135.335938 188.105469 L 135.335938 91.625 L 106.652344 91.625 C 102.332031 91.625 98.832031 88.125 98.832031 83.804688 Z M 98.832031 83.804688 " fill-opacity="1" fill-rule="evenodd"/></svg>